<?xml version="1.0" encoding="UTF-8"?>
<svg id="Capa_1" xmlns="http://www.w3.org/2000/svg" version="1.1" viewBox="0 0 595.3 841.9">
  <!-- Generator: Adobe Illustrator 29.6.0, SVG Export Plug-In . SVG Version: 2.1.1 Build 207)  -->
  <defs>
    <style>
      .st0 {
        fill: #9ac31c;
      }

      .st1 {
        fill: #3d62ab;
      }
    </style>
  </defs>
  <g>
    <path class="st1" d="M75.8,447.2c-6.6,0-12.2-1.4-16.6-4.2-4.4-2.8-7.4-6.5-8.9-11.2l15-8.7c2,5.2,5.7,7.8,11,7.8s5.9-1,5.9-3.1-.1-1.1-.4-1.6c-.3-.5-.8-.9-1.7-1.2-.8-.3-1.5-.6-2.1-.8-.6-.2-1.7-.5-3.2-.9-1.5-.4-2.7-.7-3.4-1-12.2-3.7-18.3-10.2-18.3-19.7s2-10.2,6.1-13.9c4.1-3.7,9.4-5.5,16-5.5s9.8,1.2,13.9,3.7c4.1,2.4,7.1,6,9.1,10.6l-14.5,8.5c-1.7-4.3-4.5-6.5-8.4-6.5s-2.7.3-3.5.9-1.2,1.4-1.2,2.3.7,2.3,2.1,3c1.4.7,4,1.6,7.9,2.7,2.9.9,5.3,1.7,7.2,2.5,1.9.8,3.8,1.9,5.9,3.3,2,1.4,3.6,3.3,4.6,5.5,1,2.2,1.5,4.9,1.5,7.9,0,6.2-2.1,11.1-6.4,14.5s-10.1,5.1-17.4,5.1Z"/>
    <path class="st1" d="M153.5,437.9c-6.3,6.2-13.9,9.2-23,9.2s-16.8-3.1-23-9.2-9.4-13.7-9.4-22.8,3.1-16.6,9.4-22.8c6.3-6.2,14-9.2,23-9.2s16.8,3.1,23,9.2c6.3,6.2,9.4,13.7,9.4,22.8s-3.1,16.6-9.4,22.8ZM119.7,425.8c2.8,2.8,6.4,4.2,10.7,4.2s7.9-1.4,10.7-4.2c2.8-2.8,4.2-6.4,4.2-10.6s-1.4-7.8-4.2-10.6c-2.8-2.8-6.4-4.2-10.7-4.2s-7.9,1.4-10.7,4.2c-2.8,2.8-4.2,6.4-4.2,10.6s1.4,7.8,4.2,10.6Z"/>
    <path class="st1" d="M179,428.8h20.1v17h-37.6v-61.2h17.5v44.3Z"/>
    <path class="st1" d="M237.2,445.8l-2.1-7.9h-17.7l-2.1,7.9h-18.8l19.5-61.2h20.5l19.5,61.2h-18.8ZM221.2,423.9h10.1l-5.1-18.8-5.1,18.8Z"/>
    <path class="st1" d="M286.7,445.7l-9.7-19.2h-4.4v19.2h-17.5v-61.2h24.5c6.7,0,12.2,2,16.6,5.9,4.4,3.9,6.6,9.1,6.6,15.6s-.8,6.9-2.5,9.8c-1.7,2.9-4,5.3-7,7.1l12.1,22.8h-18.7ZM272.6,400.6v11.4h6.6c1.9,0,3.3-.4,4.4-1.4,1.1-1,1.6-2.4,1.6-4.2s-.5-3.2-1.6-4.2c-1.1-1-2.6-1.5-4.4-1.5h-6.6Z"/>
  </g>
  <g>
    <path class="st0" d="M340.5,413.9c2.8,1.3,5,3.3,6.7,5.8,1.7,2.5,2.5,5.4,2.5,8.7,0,4.9-1.7,9-5.2,12.3-3.4,3.3-7.6,5-12.6,5h-26.4v-61.2h24.5c4.8,0,8.8,1.6,12.2,4.8,3.3,3.2,5,7.2,5,11.9s-2.2,9.7-6.6,12.8ZM330,392h-16.4v18.7h16.4c2.6,0,4.7-.9,6.5-2.7,1.7-1.8,2.6-4,2.6-6.6s-.9-4.8-2.7-6.6c-1.8-1.8-3.9-2.8-6.4-2.8ZM331.9,438c2.7,0,5-1,6.9-2.9,1.9-1.9,2.8-4.3,2.8-7.1s-.9-5.1-2.8-7c-1.9-1.9-4.2-2.9-6.9-2.9h-18.3v19.8h18.3Z"/>
    <path class="st0" d="M401.4,437.5c-6.2,6.2-13.7,9.3-22.5,9.3s-16.4-3.1-22.5-9.3c-6.1-6.2-9.2-13.7-9.2-22.5s3.1-16.4,9.2-22.5c6.1-6.1,13.6-9.2,22.5-9.2s16.4,3.1,22.5,9.2c6.1,6.2,9.2,13.7,9.2,22.5s-3.1,16.3-9.2,22.5ZM362.1,431.9c4.5,4.6,10.1,6.9,16.8,6.9s12.3-2.3,16.8-6.9c4.5-4.6,6.8-10.2,6.8-16.9s-2.3-12.4-6.8-17c-4.5-4.6-10.1-6.9-16.8-6.9s-12.3,2.3-16.8,6.9c-4.5,4.6-6.8,10.2-6.8,17s2.3,12.3,6.8,16.9Z"/>
    <path class="st0" d="M447.1,445.6h-9.3l-15-24.1-15,24.1h-9.2l19.6-31.5-18.5-29.7h9.2l13.9,22.3,13.9-22.3h9.2l-18.5,29.7,19.7,31.6Z"/>
  </g>
  <g>
    <path class="st0" d="M477.8,403.8h-15.4c-1.1,0-1.8-.9-1.6-2l2.7-15.4c.2-1.1,1.2-2,2.3-2h15.4c1.1,0,1.8.9,1.6,2l-2.7,15.4c-.2,1.1-1.2,2-2.3,2Z"/>
    <path class="st0" d="M498.8,403.8h-15.4c-1.1,0-1.8-.9-1.6-2l2.7-15.4c.2-1.1,1.2-2,2.3-2h15.4c1.1,0,1.8.9,1.6,2l-2.7,15.4c-.2,1.1-1.2,2-2.3,2Z"/>
    <path class="st0" d="M519.8,403.8h-15.4c-1.1,0-1.8-.9-1.6-2l2.7-15.4c.2-1.1,1.2-2,2.3-2h15.4c1.1,0,1.8.9,1.6,2l-2.7,15.4c-.2,1.1-1.2,2-2.3,2Z"/>
    <path class="st0" d="M540.8,403.8h-15.4c-1.1,0-1.8-.9-1.6-2l2.7-15.4c.2-1.1,1.2-2,2.3-2h15.4c1.1,0,1.8.9,1.6,2l-2.7,15.4c-.2,1.1-1.2,2-2.3,2Z"/>
    <path class="st0" d="M474.1,424.8h-15.4c-1.1,0-1.8-.9-1.6-2l2.7-15.4c.2-1.1,1.2-2,2.3-2h15.4c1.1,0,1.8.9,1.6,2l-2.7,15.4c-.2,1.1-1.2,2-2.3,2Z"/>
    <path class="st0" d="M495.1,424.8h-15.4c-1.1,0-1.8-.9-1.6-2l2.7-15.4c.2-1.1,1.2-2,2.3-2h15.4c1.1,0,1.8.9,1.6,2l-2.7,15.4c-.2,1.1-1.2,2-2.3,2Z"/>
    <path class="st0" d="M516.1,424.8h-15.4c-1.1,0-1.8-.9-1.6-2l2.7-15.4c.2-1.1,1.2-2,2.3-2h15.4c1.1,0,1.8.9,1.6,2l-2.7,15.4c-.2,1.1-1.2,2-2.3,2Z"/>
    <path class="st0" d="M537.1,424.8h-15.4c-1.1,0-1.8-.9-1.6-2l2.7-15.4c.2-1.1,1.2-2,2.3-2h15.4c1.1,0,1.8.9,1.6,2l-2.7,15.4c-.2,1.1-1.2,2-2.3,2Z"/>
    <path class="st0" d="M470.4,445.8h-15.4c-1.1,0-1.8-.9-1.6-2l2.7-15.4c.2-1.1,1.2-2,2.3-2h15.4c1.1,0,1.8.9,1.6,2l-2.7,15.4c-.2,1.1-1.2,2-2.3,2Z"/>
    <path class="st0" d="M491.4,445.8h-15.4c-1.1,0-1.8-.9-1.6-2l2.7-15.4c.2-1.1,1.2-2,2.3-2h15.4c1.1,0,1.8.9,1.6,2l-2.7,15.4c-.2,1.1-1.2,2-2.3,2Z"/>
    <path class="st0" d="M512.4,445.8h-15.4c-1.1,0-1.8-.9-1.6-2l2.7-15.4c.2-1.1,1.2-2,2.3-2h15.4c1.1,0,1.8.9,1.6,2l-2.7,15.4c-.2,1.1-1.2,2-2.3,2Z"/>
    <path class="st1" d="M533.4,445.8h-15.4c-1.1,0-1.8-.9-1.6-2l2.7-15.4c.2-1.1,1.2-2,2.3-2h15.4c1.1,0,1.8.9,1.6,2l-2.7,15.4c-.2,1.1-1.2,2-2.3,2Z"/>
  </g>
</svg>